<svg id="Layer_1" xmlns="http://www.w3.org/2000/svg" xmlns:xlink="http://www.w3.org/1999/xlink" x="0px" y="0px" viewBox="0 0 72 92.81" xml:space="preserve" class="Nav_logo__YYdVh"><g><path fill="white" d="M63.92,56.87c-4.37,10.67-12.74,25.26-27.84,34.46C20.97,82.18,12.56,67.6,8.16,56.94c-4.05-9.82-5.53-18.15-5.9-20.6 c1.81-1.01,3.61-1.5,5.65-1.51h0.02c1.42,0,3.44,0.26,4.59,0.6l0.64,0.19c0.61,0.18,1.23,0.36,1.87,0.54 c2.23,0.64,4.77,1.29,6.68,1.29h0.01c2.14,0,5.47-0.28,9.21-1.6c1.07-0.37,2.34-0.78,3.7-0.96l1.23-0.09c0.02,0,0.05,0,0.07,0 l1.91,0.17c1.16,0.2,2.25,0.55,3.16,0.87c3.73,1.31,7.05,1.58,9.2,1.58h0.03c1.29,0,2.97-0.29,5.29-0.92 c0.95-0.25,1.91-0.54,2.83-0.81l1.08-0.32c1.15-0.33,3.24-0.61,4.68-0.61h0.02c2.03,0,3.89,0.49,5.67,1.46 C69.42,38.62,67.97,47,63.92,56.87 M1.32,20.48l21.99,4.81c-0.19,0.34-0.37,0.68-0.54,1.03L1.25,23.45 C1.25,22.5,1.28,21.5,1.32,20.48 M2.08,12.44l22.84,10.58c-0.43,0.5-0.84,1.03-1.2,1.59L1.43,18.37 C1.56,16.46,1.77,14.48,2.08,12.44 M2.68,9.01c0.88,0.19,2.63,0.53,4.88,0.77l18.55,12c-0.25,0.23-0.48,0.47-0.71,0.71L2.46,10.21 C2.53,9.81,2.6,9.42,2.68,9.01 M12.56,10.05c2.38,0,4.63-0.2,6.73-0.59l9.36,10.48c-0.71,0.41-1.38,0.88-2.01,1.4L11.18,10.03 C11.64,10.04,12.09,10.05,12.56,10.05 M24.51,8.03l6.21,10.91c-0.42,0.16-0.83,0.34-1.23,0.54l-7.9-10.56 C22.61,8.65,23.58,8.36,24.51,8.03 M32.72,4.07l1.89,13.96c-1.05,0.1-2.06,0.31-3.03,0.62L26.37,7.33 C28.98,6.28,31.11,5.1,32.72,4.07 M35.98,1.68c0.46,0.39,0.93,0.76,1.41,1.11l-0.84,15.2c-0.18-0.01-0.35-0.03-0.53-0.03h-0.02 c-0.18,0-0.36,0.02-0.55,0.03L34.61,2.77C35.21,2.32,35.68,1.94,35.98,1.68 M39.22,4.07c2.22,1.44,4.42,2.5,6.3,3.26l-5.2,11.31 c-0.96-0.3-1.96-0.51-2.99-0.6L39.22,4.07z M47.4,8.03c1.33,0.45,2.37,0.73,2.93,0.87l-7.91,10.57c-0.4-0.2-0.81-0.38-1.24-0.54 L47.4,8.03z M52.68,9.38C55,9.78,57.4,9.99,59.86,9.99c0.3,0,0.58-0.01,0.86-0.02L45.26,21.29c-0.63-0.51-1.29-0.97-1.99-1.37 L52.68,9.38z M64.31,9.76c2.34-0.24,4.09-0.6,4.97-0.82c0.08,0.4,0.15,0.8,0.23,1.2l-23,12.3c-0.23-0.24-0.47-0.48-0.73-0.7 L64.31,9.76z M69.89,12.38c0.32,2.08,0.54,4.12,0.67,6.06L48.3,24.67c-0.39-0.6-0.82-1.16-1.28-1.69L69.89,12.38z M70.75,23.48 l-21.5,2.88c-0.17-0.35-0.35-0.69-0.54-1.02l21.97-4.81C70.72,21.54,70.75,22.54,70.75,23.48 M64.19,28.09 c-1.36,0-3.62,0.25-5.02,0.66l-1,0.29c-0.93,0.27-1.92,0.57-2.89,0.83l0,0c-1.33,0.36-3.24,0.82-4.74,0.86 c-0.17-1.27-0.49-2.48-0.96-3.63l21.15-1.59c-0.03,1.47-0.09,2.82-0.18,4.02C68.62,28.64,66.38,28.13,64.19,28.09 M64.1,30.79 h-0.01c-1.37,0-3.63,0.25-5.03,0.66l-0.97,0.29c-0.94,0.27-1.93,0.57-2.91,0.83l0.17,0.61l-0.17-0.61 c-1.4,0.38-3.44,0.87-4.97,0.87h-0.02c-2.04,0-5.21-0.26-8.78-1.51c-0.91-0.31-2.12-0.7-3.39-0.92c-0.72-0.12-1.4-0.18-2.07-0.18 c-0.5,0-0.98,0.04-1.48,0.1c-1.47,0.19-2.83,0.62-3.97,1.02c-3.58,1.26-6.76,1.53-8.8,1.53H21.7c-1.74,0-4.17-0.63-6.34-1.24 l-2.51-0.73c-1.27-0.37-3.39-0.65-4.95-0.65H7.89c-2.16,0-4.27,0.53-6.18,1.49c-0.04-0.42-0.09-0.86-0.13-1.35 c1.89-1,4.19-1.59,6.42-1.59h0.02c1.43,0,3.44,0.26,4.6,0.6l2.51,0.73l0.17-0.6l-0.17,0.6c2.35,0.67,4.79,1.29,6.68,1.29h0.01 c2.14,0,5.47-0.29,9.21-1.61c1.07-0.38,2.35-0.79,3.7-0.96l1.33-0.09l1.89,0.16c1.18,0.2,2.31,0.57,3.16,0.87 c3.73,1.31,7.05,1.58,9.19,1.58h0.03c1.29,0,2.92-0.28,5.29-0.92l0,0c0.98-0.26,1.98-0.56,2.92-0.84l0.99-0.29 c1.14-0.33,3.24-0.61,4.68-0.61h0.01c2.15,0,4.39,0.56,6.24,1.52c-0.04,0.51-0.09,0.98-0.13,1.42 C68.39,31.32,66.26,30.79,64.1,30.79 M36.06,28.13l0,0.09L36.06,28.13c-0.5,0-0.99,0.04-1.48,0.1c-1.47,0.19-2.84,0.62-3.97,1.02 c-3.07,1.08-5.85,1.43-7.86,1.51c0.92-6.61,6.5-11.53,13.25-11.54h0.02c6.67,0,12.32,4.99,13.26,11.5 c-2.01-0.08-4.74-0.43-7.75-1.49c-0.91-0.32-2.11-0.71-3.38-0.92l-0.01,0.03l0.01-0.03C37.41,28.19,36.73,28.13,36.06,28.13  M1.27,25.49l21.16,1.59c-0.47,1.15-0.79,2.38-0.95,3.67c-1.71-0.07-3.97-0.64-6-1.22l-2.51-0.73c-1.27-0.37-3.39-0.65-4.95-0.65 H7.99c-2.24,0-4.56,0.56-6.53,1.51C1.37,28.43,1.3,27.03,1.27,25.49 M64.11,33.51h-0.02c-1.37,0-3.62,0.25-5.03,0.66l-1.08,0.32 c-0.91,0.27-1.86,0.55-2.8,0.8l0.16,0.61l-0.16-0.61c-2.21,0.6-3.78,0.87-4.97,0.88h-0.03c-2.04,0-5.21-0.26-8.78-1.51 c-0.97-0.34-2.13-0.71-3.38-0.92c-1.27-0.22-2.38-0.24-3.56-0.09c-1.48,0.19-2.83,0.63-3.97,1.03c-3.58,1.26-6.76,1.53-8.8,1.53 H21.7c-1.75,0-4.18-0.63-6.33-1.25l-0.17,0.61l0.17-0.61c-0.63-0.18-1.26-0.36-1.86-0.54l-0.65-0.19c-1.28-0.37-3.4-0.65-4.94-0.65 H7.89c-2.1,0-3.98,0.49-5.84,1.46c-0.05-0.32-0.12-0.78-0.2-1.36c1.84-1.01,3.91-1.56,6.03-1.56h0.02c1.43,0,3.45,0.26,4.6,0.6 l2.51,0.73l0.18-0.6l-0.17,0.6c2.36,0.67,4.8,1.29,6.68,1.29h0.01c2.14,0,5.47-0.29,9.21-1.6c1.07-0.38,2.35-0.79,3.7-0.96 l1.23-0.09c0.03,0,0.05,0,0.08,0l1.9,0.17c1.17,0.2,2.31,0.57,3.17,0.87c3.74,1.3,7.06,1.58,9.2,1.58h0.03 c1.29,0,2.91-0.28,5.29-0.92c0.99-0.27,1.99-0.56,2.94-0.84l0.97-0.28c1.13-0.33,3.23-0.61,4.68-0.61h0.01 c2.12,0,4.21,0.54,6.06,1.55c-0.07,0.56-0.13,1-0.18,1.32C68.13,34,66.21,33.51,64.11,33.51 M71.93,20.25l-0.12-2.17 c-0.14-2-0.38-4.11-0.73-6.26l-0.24-1.46c-0.14-0.78-0.29-1.55-0.46-2.34l-0.14-0.66l-0.64,0.19c-0.02,0.01-1.06,0.3-2.81,0.59 l-4.24,0.48c-0.84,0.06-1.74,0.09-2.68,0.09c-2.47,0-4.89-0.22-7.21-0.64L51.16,7.8c-0.03-0.01-0.06-0.01-0.08-0.02 c-0.03-0.01-1.23-0.26-3.04-0.88l-1.98-0.74c-1.98-0.79-4.32-1.93-6.65-3.48l-1.94-1.42c-0.36-0.29-0.73-0.58-1.08-0.9L35.96,0 l-0.42,0.39c-0.01,0.01-0.36,0.34-1.02,0.86l-1.98,1.43c-1.62,1.07-3.88,2.37-6.69,3.5l-1.98,0.74c-0.95,0.32-1.96,0.63-3.02,0.91 c-0.03,0-0.06,0.01-0.08,0.02l-1.72,0.38c-2.02,0.37-4.2,0.57-6.5,0.57c-1.13,0-2.2-0.04-3.21-0.12L5.09,8.18 C3.42,7.91,2.38,7.65,2.36,7.65L1.73,7.49L1.59,8.12C1.45,8.75,1.34,9.38,1.22,10l-0.32,1.9c-0.33,2.1-0.56,4.16-0.7,6.13 L0.07,20.2C0.03,21.27,0,22.29,0,23.28l0.01,2.12c0.12,5.94,0.83,10.04,0.88,10.37c0.07,0.51,1.32,10.08,6.08,21.62 c4.47,10.83,13.03,25.66,28.44,35.01l0.67,0.4l0.66-0.4c15.39-9.39,23.9-24.24,28.34-35.09c4.73-11.55,5.97-21.13,6.03-21.63 c0.06-0.33,0.75-4.38,0.86-10.27l0.02-2.1C71.99,22.33,71.97,21.31,71.93,20.25"></path><path fill="white" d="M53.9,49.92c-0.19,0.2-0.45,0.3-0.72,0.3l-4.79,0.01c-0.57,0-1.02-0.46-1.02-1.02c0-0.56,0.46-1.02,1.02-1.02l0.78,0 c0,0,0.01,0.01,0.01,0.01l0.01-0.01h1.03l2.98,0c0.56,0,1.02,0.46,1.02,1.02C54.2,49.47,54.09,49.73,53.9,49.92 M52.96,51.67 c-0.18,0.18-0.43,0.27-0.74,0.27l-2.92,0c-0.49,0-0.83-0.36-0.96-0.96c0.02,0,0.04,0,0.05,0l4.79-0.01c0.03,0,0.05-0.01,0.08-0.01 C53.2,51.26,53.11,51.51,52.96,51.67 M51.75,64.01l-1.94,0l-0.52-11.3l0,0l2.92,0c0.02,0,0.04-0.01,0.06-0.02L51.75,64.01z  M53.04,65.59c0,0.45-0.37,0.83-0.83,0.83l-2.79,0l0,0.38v-0.38c-0.46,0-0.82-0.37-0.82-0.83c0-0.45,0.37-0.82,0.82-0.82l1.58,0 l1.21,0C52.66,64.77,53.04,65.14,53.04,65.59 M50.79,72.58c-0.33,0-0.61-0.27-0.61-0.62l-0.22-4.77h1.65l-0.22,4.79 C51.39,72.31,51.12,72.58,50.79,72.58 M46.93,45.79c0-0.63,0.26-1.16,0.53-1.71c0.33-0.66,0.69-1.4,0.54-2.32 c0.47,0.19,1.07,0.53,1.53,1c-0.01,0.01-0.02,0.02-0.02,0.02c-0.11,0.12-0.22,0.25-0.32,0.36c-0.02,0.02-1.95,1.9-0.56,4.28h-0.24 c-0.14,0-0.27,0.02-0.4,0.05C47.76,47.38,46.94,46.95,46.93,45.79 M51.12,41.71c0.11-0.3,0.11-0.63,0.06-0.93 c0.78,0.71,1.71,1.84,1.72,3.2c0.01,1.69-1.06,2.98-1.49,3.44h-0.27c-0.34-0.46-0.99-1.51-0.3-2.68c0.14-0.24,0.77-1.21,0.85-1.39 c0.11-0.23,0.09-0.44,0.09-0.44c-0.11,0.17-0.29,0.38-0.29,0.38c-0.18,0.2-0.8,0.84-1,1.07c-1.02,1.24-0.34,2.6-0.07,3.06l-0.89,0 c-1.52-2.05,0.11-3.66,0.2-3.75c0.12-0.13,0.23-0.25,0.33-0.37C50.49,42.84,50.86,42.44,51.12,41.71 M53.39,42.36 c0.32-0.4,0.63-0.65,0.87-0.8c-0.19,1.76,0.72,3.51,0.74,3.53c0.44,1.5-1.05,2.23-1.42,2.39c-0.13-0.03-0.26-0.05-0.41-0.05H52.4 c0.56-0.73,1.26-1.94,1.25-3.44C53.65,43.34,53.39,42.36,53.39,42.36 M54.39,47.9c0.86-0.53,1.77-1.55,1.31-3.1 c-0.01-0.02-1.09-2.1-0.56-3.76l0.18-0.56l-0.59,0.07c-0.09,0.01-0.88,0.15-1.8,1.17c-0.9-1.46-2.36-2.37-2.45-2.42l-1.45-0.86 l0.94,1.4c0.17,0.25,0.61,1.09,0.42,1.62c-0.1,0.29-0.23,0.52-0.38,0.73c-0.96-0.98-2.44-1.38-2.5-1.39l-0.76-0.2l0.31,0.72 c0.42,0.97,0.09,1.65-0.3,2.44c-0.29,0.58-0.61,1.24-0.6,2.05c0,1.05,0.52,1.72,1.02,2.1c-0.36,0.32-0.6,0.8-0.6,1.32 c0,0.67,0.38,1.25,0.94,1.55c0.08,0.9,0.48,1.47,0.98,1.74l0.53,11.58c-0.7,0.17-1.22,0.76-1.22,1.51c0,0.8,0.6,1.43,1.36,1.55 l0.22,4.83c0,0.75,0.61,1.37,1.37,1.37c0.75,0,1.37-0.61,1.37-1.35l0.22-4.84c0.8-0.09,1.43-0.74,1.42-1.56 c0-0.77-0.56-1.38-1.28-1.53l0.53-11.57c0.16-0.08,0.32-0.16,0.44-0.29c0.35-0.35,0.53-0.86,0.57-1.5 c0.13-0.08,0.27-0.14,0.38-0.25c0.33-0.33,0.52-0.79,0.52-1.25C54.96,48.69,54.74,48.23,54.39,47.9"></path><path fill="white" d="M23.29,50.26l-4.79,0.01c-0.57,0-1.02-0.45-1.02-1.02c0-0.27,0.1-0.53,0.3-0.72c0.19-0.2,0.45-0.3,0.72-0.3h0.78 c0,0,0,0,0,0.01l0.01-0.01h1.03l1.51,0h1.47c0.56,0,1.02,0.45,1.02,1.02C24.32,49.8,23.86,50.26,23.29,50.26 M23.08,51.72 c-0.17,0.17-0.42,0.26-0.75,0.26l-2.92,0c-0.48,0-0.83-0.37-0.96-0.97c0.02,0,0.03,0.01,0.05,0.01l4.79-0.01 c0.03,0,0.06-0.01,0.08-0.01C23.32,51.31,23.24,51.56,23.08,51.72 M21.87,64.04l-1.94,0l-0.52-11.3c0,0,0,0,0.01,0l2.92-0.01 c0.02,0,0.04-0.01,0.06-0.01L21.87,64.04z M23.16,65.63c0,0.22-0.08,0.43-0.24,0.58c-0.15,0.16-0.36,0.24-0.58,0.24h-2.78l0,0.38 v-0.38c-0.45,0-0.83-0.37-0.83-0.82c0-0.45,0.37-0.83,0.83-0.83h1.58l1.21,0C22.78,64.8,23.16,65.18,23.16,65.63 M20.9,72.62 c-0.33,0-0.61-0.27-0.61-0.62l-0.22-4.77l1.65,0l-0.22,4.79C21.51,72.35,21.24,72.62,20.9,72.62 M17.05,45.83 c0-0.63,0.26-1.16,0.53-1.71c0.33-0.66,0.69-1.4,0.54-2.32c0.47,0.2,1.08,0.53,1.52,1c-0.01,0.01-0.02,0.02-0.03,0.03 c-0.11,0.12-0.22,0.24-0.31,0.35c-0.02,0.02-1.95,1.9-0.57,4.28H18.5c-0.13,0-0.24,0.05-0.36,0.07 C18.05,47.5,17.05,47.11,17.05,45.83 M21.24,41.75c0.11-0.3,0.11-0.63,0.05-0.94c0.79,0.72,1.71,1.84,1.72,3.21 c0.01,1.69-1.06,2.98-1.5,3.44h-0.27c-0.34-0.46-1-1.51-0.3-2.68c0.14-0.24,0.77-1.21,0.85-1.4c0.1-0.23,0.09-0.43,0.09-0.43 c-0.1,0.17-0.29,0.37-0.29,0.37c-0.18,0.2-0.8,0.84-0.99,1.08c-1.03,1.24-0.34,2.6-0.07,3.06l-0.89,0c-1.53-2.05,0.1-3.66,0.2-3.75 c0.11-0.13,0.22-0.25,0.32-0.36C20.6,42.88,20.97,42.48,21.24,41.75 M23.5,42.4c0.33-0.4,0.63-0.65,0.88-0.8 c-0.19,1.76,0.72,3.51,0.74,3.53c0.44,1.51-1.05,2.24-1.41,2.39c-0.13-0.03-0.27-0.05-0.41-0.05h-0.77 c0.56-0.73,1.27-1.94,1.25-3.44C23.77,43.37,23.5,42.4,23.5,42.4 M24.51,47.94c0.86-0.53,1.76-1.55,1.31-3.1 c-0.01-0.02-1.09-2.1-0.56-3.76l0.18-0.56l-0.59,0.07c-0.09,0.01-0.88,0.14-1.79,1.16c-0.91-1.46-2.37-2.36-2.45-2.41l-1.44-0.85 l0.93,1.39c0.18,0.27,0.61,1.09,0.42,1.62c-0.1,0.29-0.23,0.52-0.38,0.73c-0.96-0.98-2.43-1.38-2.5-1.39l-0.76-0.2l0.31,0.72 c0.42,0.97,0.09,1.65-0.3,2.44c-0.28,0.58-0.61,1.24-0.61,2.05c0,1.13,0.57,1.77,1.02,2.1c-0.02,0.02-0.05,0.03-0.08,0.05 c-0.34,0.34-0.52,0.79-0.52,1.26c0,0.67,0.38,1.25,0.93,1.55c0.08,0.81,0.44,1.44,0.98,1.74l0.54,11.58 c-0.7,0.17-1.22,0.77-1.22,1.51c0,0.8,0.6,1.42,1.36,1.54l0.22,4.84c0,0.75,0.61,1.37,1.37,1.37c0.75,0,1.37-0.62,1.37-1.35 l0.22-4.84c0.36-0.04,0.7-0.17,0.96-0.44c0.3-0.3,0.47-0.7,0.46-1.12c0-0.76-0.56-1.38-1.28-1.53l0.53-11.56 c0.17-0.08,0.33-0.16,0.46-0.29c0.34-0.34,0.52-0.84,0.56-1.48c0.53-0.31,0.9-0.88,0.9-1.54C25.08,48.73,24.85,48.27,24.51,47.94"></path><path fill="white" d="M40.46,52.15c-0.3,0.3-0.69,0.46-1.11,0.46l-6.7,0.01c-0.87,0-1.58-0.71-1.58-1.57c0-0.87,0.71-1.58,1.58-1.58 c0,0,4.46,0,4.48-0.01h2.23c0.87,0,1.57,0.7,1.57,1.57C40.92,51.46,40.76,51.86,40.46,52.15 M38.01,54.82l-4.09,0h0 c-0.65,0-1.24-0.71-1.47-1.45c0.07,0,0.13,0.02,0.2,0.02l6.7-0.01c0.08,0,0.17-0.02,0.25-0.02C39.35,54.08,38.69,54.82,38.01,54.82  M37.51,71.89l-3.01,0l-0.75-16.34c0.06,0.01,0.11,0.02,0.17,0.02h0l4.09,0c0.09,0,0.17-0.02,0.25-0.04L37.51,71.89z M39.3,73.96 c0,0.72-0.59,1.31-1.31,1.31l-3.89,0.01c-0.72,0-1.31-0.59-1.31-1.31c0-0.72,0.59-1.31,1.3-1.31l2.94,0h0.95 C38.71,72.66,39.3,73.24,39.3,73.96 M37,82.88c0,0.26-0.1,0.51-0.29,0.71c-0.19,0.19-0.44,0.29-0.7,0.29h0 c-0.27,0-0.52-0.1-0.7-0.29C35.11,83.4,35,83.15,35,82.87l-0.32-6.83l2.63,0L37,82.88z M30.47,46.27c0-0.91,0.37-1.66,0.75-2.46 c0.5-1.01,1.01-2.06,0.68-3.43c0.67,0.25,1.68,0.73,2.4,1.53c-0.09,0.09-0.17,0.19-0.26,0.29c-0.15,0.16-0.3,0.33-0.44,0.48 c-0.03,0.03-2.77,2.7-0.63,6.03h-0.33c-0.2,0-0.39,0.04-0.58,0.08C31.89,48.73,30.47,48.12,30.47,46.27 M36.06,40.52 c0.21-0.58,0.13-1.23-0.02-1.78c1.18,0.96,2.92,2.75,2.94,5.01c0.02,2.47-1.59,4.36-2.17,4.96h-0.19 c-0.31-0.48-0.66-1.24-0.66-2.11c0-1.67,0.81-2.64,0.81-2.64s-1.03,0.7-1.21,2.24c-0.08,0.74,0.08,1.52,0.56,2.52h-0.98 c-0.37-0.55-1.38-2.13-0.33-3.91c0.2-0.33,1.25-1.69,1.37-1.95c0.14-0.31,0.12-0.61,0.12-0.61c-0.15,0.24-0.4,0.53-0.4,0.53 c-0.25,0.28-1.12,1.18-1.39,1.5c-1.56,1.9-0.27,3.99-0.01,4.44h-0.59c-2.29-3,0.11-5.37,0.25-5.5c0.15-0.18,0.3-0.34,0.44-0.5 C35.19,42.07,35.7,41.52,36.06,40.52 M40.91,40.88c-0.5,2.36,0.3,4.31,0.32,4.36c0.63,2.17-0.92,3.24-1.4,3.51 c-0.15-0.03-0.32-0.05-0.48-0.05l-1.53,0c0.8-0.96,1.93-2.72,1.91-4.97c0-0.58-0.11-1.12-0.27-1.63 C40.02,41.45,40.53,41.08,40.91,40.88 M40.66,49.1c0.78-0.61,1.92-1.93,1.29-4.11c-0.01-0.02-0.89-2.2-0.12-4.6L42,39.83 l-0.59,0.07c-0.04,0-1.06,0.16-2.26,1.42c-1.15-2.42-3.64-3.91-3.77-3.99l-1.26-0.75l0.74,1.27c0.01,0.01,0.83,1.44,0.48,2.41 c-0.15,0.43-0.34,0.76-0.56,1.06c-1.31-1.4-3.31-1.88-3.4-1.9l-0.74-0.17l0.3,0.69c0.62,1.42,0.14,2.4-0.41,3.53 c-0.41,0.84-0.83,1.7-0.83,2.8c0,1.51,0.81,2.45,1.52,2.93c-0.56,0.43-0.92,1.1-0.92,1.85c0,0.92,0.54,1.7,1.31,2.09 c0.13,0.87,0.65,1.76,1.38,2.18l-0.03,0l0.77,16.61c-0.97,0.17-1.71,1.02-1.71,2.03c0,1.08,0.84,1.96,1.89,2.05l0.32,6.87 c0,0.47,0.18,0.91,0.51,1.24c0.33,0.33,0.77,0.51,1.24,0.51H36c0.47,0,0.91-0.18,1.24-0.52c0.33-0.33,0.52-0.78,0.51-1.23 l0.32-6.87c1.1-0.04,1.99-0.95,1.99-2.06c0-1.05-0.79-1.9-1.8-2.04l0.76-16.66h0c0.75-0.46,1.29-1.33,1.4-2.17 c0.2-0.11,0.4-0.24,0.57-0.41c0.44-0.44,0.69-1.03,0.68-1.66C41.68,50.23,41.28,49.52,40.66,49.1"></path></g></svg>
