<svg xmlns="http://www.w3.org/2000/svg" width="19" height="18" viewBox="0 0 19 18" fill="none"><path d="M17.1762 18L10.8762 11.7C10.3762 12.1 9.80117 12.4167 9.15117 12.65C8.50117 12.8833 7.80951 13 7.07617 13C5.25951 13 3.72201 12.3708 2.46367 11.1125C1.20534 9.85417 0.576172 8.31667 0.576172 6.5C0.576172 4.68333 1.20534 3.14583 2.46367 1.8875C3.72201 0.629167 5.25951 0 7.07617 0C8.89284 0 10.4303 0.629167 11.6887 1.8875C12.947 3.14583 13.5762 4.68333 13.5762 6.5C13.5762 7.23333 13.4595 7.925 13.2262 8.575C12.9928 9.225 12.6762 9.8 12.2762 10.3L18.5762 16.6L17.1762 18ZM7.07617 11C8.32617 11 9.38867 10.5625 10.2637 9.6875C11.1387 8.8125 11.5762 7.75 11.5762 6.5C11.5762 5.25 11.1387 4.1875 10.2637 3.3125C9.38867 2.4375 8.32617 2 7.07617 2C5.82617 2 4.76367 2.4375 3.88867 3.3125C3.01367 4.1875 2.57617 5.25 2.57617 6.5C2.57617 7.75 3.01367 8.8125 3.88867 9.6875C4.76367 10.5625 5.82617 11 7.07617 11Z" fill="#E8EAED"></path></svg>
