<svg id="Layer_1" xmlns="http://www.w3.org/2000/svg" xmlns:xlink="http://www.w3.org/1999/xlink" x="0px" y="0px" viewBox="0 0 113 35.4" style="enable-background:new 0 0 113 35.4" xml:space="preserve" class="_Header_svg__vB3nP" aria-hidden="true"><style type="text/css">
		.st0 {
			fill: #FFFFFF;
		}

	</style><path class="st0" d="M39.2,5.6c0-0.4-0.1-3.7-0.1-4c0-0.4-0.2-0.6-0.9-0.6h-1.1C37.1,1,37,1,37,0.9V0.4c0-0.1,0.1-0.1,0.1-0.1 c0.2,0,1.1,0.1,2.8,0.1c1.6,0,2.2-0.1,2.5-0.1c0.1,0,0.1,0.1,0.1,0.1v0.5C42.6,1,42.5,1,42.4,1h-0.9c-0.4,0-0.6,0.1-0.6,0.5 c0,0.2-0.1,4.2-0.1,4.4v1.4c0,0.2,0.1,4.4,0.1,4.6c0,0.6,0.3,0.7,0.9,0.7h0.7c0.1,0,0.1,0,0.1,0.1v0.5c0,0.1-0.1,0.1-0.2,0.1 c-0.2,0-0.9-0.1-2.5-0.1c-1.7,0-2.5,0.1-2.7,0.1c-0.1,0-0.1,0-0.1-0.1v-0.5c0-0.1,0.1-0.1,0.1-0.1h1c0.4,0,0.7-0.1,0.8-0.5 c0-0.3,0.1-4.2,0.1-5.1V5.6z"></path><path class="st0" d="M44,12.1c-0.8-1-1-1.7-1-3c0-0.9,0.5-2.1,1.6-2.9c0.9-0.7,1.8-0.9,2.4-0.9c1,0,2,0.5,2.5,1.1 c0.8,0.8,1.2,1.8,1.2,3c0,2-1.8,4-4,4C45.9,13.4,44.8,13,44,12.1z M49.3,9.2c0-2-1.5-3.3-2.4-3.3c-0.5,0-1,0.1-1.4,0.6 c-0.7,0.7-1,1.5-1,2.8c0,1,0.1,1.7,0.7,2.5c0.4,0.6,0.9,0.9,1.8,0.9C48.4,12.8,49.3,11.2,49.3,9.2z"></path><path class="st0" d="M54.8,11.5L54.8,11.5c0.3-0.7,1.6-3.8,1.8-4.5c0.1-0.5,0-0.8-0.3-0.8H56c-0.1,0-0.1-0.1-0.1-0.2V5.7 c0-0.1,0-0.1,0.1-0.1c0.3,0,0.7,0.1,1.5,0.1c0.7,0,1.1-0.1,1.3-0.1c0.1,0,0.2,0,0.2,0.2V6c0,0.1,0,0.2-0.1,0.2h-0.3 c-0.2,0-0.4,0-0.6,0.2c-0.3,0.3-1.2,2.2-1.5,2.9c-0.2,0.5-1.6,3.6-1.6,3.7c-0.1,0.3-0.2,0.4-0.4,0.4c-0.2,0-0.3-0.2-0.4-0.4 c0-0.1-1.4-3.5-1.4-3.7c-0.1-0.1-0.8-2.2-0.9-2.5c-0.2-0.5-0.4-0.7-0.7-0.7h-0.4c-0.1,0-0.1-0.1-0.1-0.2V5.7c0-0.1,0-0.1,0.2-0.1 c0.2,0,0.5,0.1,1.5,0.1c1,0,1.4-0.1,1.6-0.1c0.1,0,0.2,0,0.2,0.1V6c0,0.1,0,0.2-0.1,0.2h-0.4c-0.2,0-0.3,0.1-0.3,0.3 c0,0.3,0.5,1.8,0.6,2.1C53.9,9,54.6,11.1,54.8,11.5z"></path><path class="st0" d="M60.2,7.9c0-0.6-0.1-0.9-1-1.1c-0.1,0-0.2-0.1-0.2-0.1V6.5c0-0.1,0-0.1,0.1-0.1c0.6-0.2,1.3-0.5,2-0.9 c0.1-0.1,0.2-0.1,0.3-0.1c0.1,0,0.1,0.1,0.1,0.2c0,0.3,0,1.4,0,3v2c0,0.7,0,1.4,0,1.6c0,0.3,0.1,0.5,0.3,0.5h0.8 c0.1,0,0.2,0.1,0.2,0.2V13c0,0.1,0,0.2-0.2,0.2c-0.1,0-1-0.1-1.7-0.1c-1.1,0-1.8,0.1-2,0.1c-0.1,0-0.1,0-0.1-0.1v-0.4 c0-0.1,0.1-0.1,0.2-0.1h0.9c0.2,0,0.3-0.1,0.3-0.4c0-0.5,0-1.1,0-1.6L60.2,7.9L60.2,7.9z M59.4,2.4c0-0.5,0.4-0.9,1.1-0.9 c0.6,0,0.9,0.5,0.9,0.9c0,0.5-0.3,1-1.1,1C60,3.3,59.4,2.9,59.4,2.4z"></path><path class="st0" d="M70.8,12.2c0,0.3,0.2,0.4,0.4,0.4h0.6c0.2,0,0.2,0.1,0.2,0.2V13c0,0.1,0,0.2-0.1,0.2c-0.1,0-0.7-0.1-1.7-0.1 c-0.9,0-1.5,0.1-1.6,0.1c-0.1,0-0.1-0.1-0.1-0.2v-0.3c0-0.1,0.1-0.2,0.2-0.2h0.5c0.2,0,0.3-0.1,0.4-0.4c0-0.5,0-1.1,0-1.5V8.2 c0-0.7,0-1.3-0.5-1.6c-0.4-0.3-0.9-0.3-1.3-0.3c-0.3,0-0.9,0.1-1.5,0.7c-0.4,0.4-0.4,0.9-0.4,1.2V12c0,0.5,0.1,0.6,0.4,0.6h0.5 c0.1,0,0.2,0.1,0.2,0.2v0.3c0,0.1,0,0.2-0.1,0.2c-0.1,0-0.6-0.1-1.6-0.1c-0.9,0-1.5,0.1-1.6,0.1c-0.1,0-0.1-0.1-0.1-0.2v-0.3 c0-0.1,0-0.2,0.2-0.2h0.5c0.2,0,0.4-0.1,0.4-0.4V8c0-0.5-0.3-0.8-0.7-1.1l-0.1-0.1c-0.1-0.1-0.1-0.1-0.1-0.2V6.6 c0-0.1,0.1-0.1,0.2-0.2l1.6-0.9c0.1-0.1,0.3-0.1,0.3-0.1c0.1,0,0.1,0.1,0.1,0.2l0.1,1.1h0c0.5-0.7,1.6-1.3,2.5-1.3 c0.5,0,1.1,0.1,1.5,0.4c0.5,0.4,1,1.3,1,1.7L70.8,12.2L70.8,12.2z"></path><path class="st0" d="M73.6,8.3c0,0.2-0.1,0.5-0.1,0.9c0,1.8,1.1,3.1,2.6,3.1c1.1,0,1.9-0.6,2.2-1.2c0-0.1,0.1-0.1,0.2-0.1l0.2,0.1 c0.1,0,0.1,0.1,0,0.3c-0.3,0.7-1.3,2-2.9,2c-1,0-2.2-0.3-2.9-1.3c-0.6-0.9-0.8-1.6-0.8-2.9c0-0.7,0.2-1.9,1.1-2.9 c0.8-0.8,1.7-1,2.6-1c2.1,0,2.7,2,2.7,2.7c0,0.3-0.2,0.3-0.5,0.3H73.6z M76.5,7.8c0.3,0,0.5-0.1,0.5-0.3c0-0.4-0.2-1.6-1.4-1.6 c-0.8,0-1.6,0.5-1.9,1.9L76.5,7.8L76.5,7.8z"></path><path class="st0" d="M88.9,11c0,1,0.2,1.4,0.5,1.4c0.3,0,0.5-0.1,0.6-0.3c0.1-0.1,0.1-0.1,0.2-0.1l0.2,0.1c0.1,0.1,0.1,0.1,0,0.3 c-0.1,0.3-0.5,0.9-1.4,0.9c-0.7,0-1.1-0.5-1.3-1.2h0c-0.4,0.5-1,0.8-1.8,1.1c-0.3,0.1-0.7,0.1-1.1,0.1c-0.4,0-1.1-0.4-1.1-1.5 c0-0.8,0.4-1.6,1.8-2.2c0.8-0.4,1.8-0.8,2.1-1.1V7.5c0-0.3-0.1-0.8-0.3-1c-0.2-0.2-0.6-0.4-1.1-0.4c-0.4,0-0.9,0.1-1.2,0.4 C84.8,6.7,85,6.9,85,7.3c0,0.6-0.2,1-1,1c-0.3,0-0.4-0.2-0.4-0.6c0-0.6,0.5-1.3,1.3-1.7c0.8-0.5,1.4-0.6,2.2-0.6 c0.9,0,1.2,0.3,1.5,0.5c0.4,0.4,0.4,0.8,0.4,1.3v2.8V11z M87.6,9.2c-0.7,0.5-2.4,0.8-2.4,2.4c0,0.7,0.4,1,0.9,1 c0.5,0,1.5-0.6,1.5-1.1L87.6,9.2L87.6,9.2z"></path><path class="st0" d="M98.3,12.2c0,0.3,0.2,0.4,0.4,0.4h0.6c0.2,0,0.2,0.1,0.2,0.2V13c0,0.1,0,0.2-0.1,0.2c-0.1,0-0.7-0.1-1.7-0.1 c-0.9,0-1.5,0.1-1.6,0.1c-0.1,0-0.1-0.1-0.1-0.2v-0.3c0-0.1,0.1-0.2,0.2-0.2h0.5c0.2,0,0.3-0.1,0.4-0.4c0-0.5,0-1.1,0-1.5V8.2 c0-0.7,0-1.3-0.5-1.6c-0.4-0.3-0.9-0.3-1.3-0.3c-0.3,0-0.9,0.1-1.5,0.7c-0.4,0.4-0.4,0.9-0.4,1.2V12c0,0.5,0.1,0.6,0.4,0.6h0.5 c0.1,0,0.2,0.1,0.2,0.2v0.3c0,0.1,0,0.2-0.1,0.2c-0.1,0-0.6-0.1-1.6-0.1c-0.9,0-1.5,0.1-1.6,0.1c-0.1,0-0.1-0.1-0.1-0.2v-0.3 c0-0.1,0-0.2,0.2-0.2h0.5c0.2,0,0.4-0.1,0.4-0.4V8c0-0.5-0.3-0.8-0.7-1.1L91,6.8c-0.1-0.1-0.1-0.1-0.1-0.2V6.6 c0-0.1,0.1-0.1,0.2-0.2l1.6-0.9c0.1-0.1,0.3-0.1,0.3-0.1c0.1,0,0.1,0.1,0.1,0.2l0.1,1.1h0c0.5-0.7,1.6-1.3,2.5-1.3 c0.5,0,1.1,0.1,1.5,0.4c0.5,0.4,1,1.3,1,1.7L98.3,12.2L98.3,12.2z"></path><path class="st0" d="M105.6,2.1c0-0.7-0.1-0.9-1.1-1.1c-0.1,0-0.1-0.1-0.1-0.1V0.6c0-0.1,0-0.1,0.1-0.1c0.7-0.1,1.7-0.3,2-0.4 c0.2,0,0.3-0.1,0.4-0.1c0.1,0,0.1,0.1,0.1,0.3c-0.1,0.9-0.1,3.5-0.1,5.8v4c0,0.7,0,1.5,0.2,1.6c0.2,0.2,0.5,0.3,0.8,0.3 c0.3,0,0.3,0,0.4,0.1l0,0.1c0,0.1,0,0.2-0.1,0.2l-2.1,0.7c-0.1,0-0.2,0-0.2-0.1l-0.2-0.8c-0.6,0.6-1.7,1-2.7,1c-0.6,0-1.3,0-2.1-0.8 c-0.9-0.9-1.1-1.7-1.1-2.9c0-1.1,0.4-2.2,1.3-3.1c0.7-0.8,1.7-1.1,2.7-1.1c0.7,0,1.4,0.1,1.9,0.3V2.1z M105.6,7.9 c0-0.3,0-0.6-0.2-0.9c-0.3-0.5-0.8-1-1.9-1c-0.6,0-1.2,0.2-1.7,0.7c-0.7,0.8-0.8,1.7-0.8,2.4c0,2,1.4,3.5,2.5,3.5c1,0,1.8-0.5,2-1 c0.1-0.3,0.1-0.4,0.1-0.6L105.6,7.9L105.6,7.9z"></path><path class="st0" d="M7,27.1C7,27.8,7,29,7,29.2c0.1,0.6,0.3,0.6,0.8,0.6h0.7c0.1,0,0.1,0.1,0.1,0.1v0.4c0,0.1,0,0.2-0.1,0.2 c-0.2,0-0.9-0.1-2.5-0.1c-1.6,0-2.2,0.1-2.4,0.1c-0.1,0-0.1-0.1-0.1-0.1v-0.4c0-0.1,0-0.1,0.1-0.1h0.9c0.5,0,0.6-0.2,0.6-0.5 c0-0.3,0.1-1.7,0.1-3.4v-1c-0.2-0.5-3.3-5.6-3.8-6.2c-0.2-0.3-0.7-0.4-0.9-0.4H0.1C0,18.3,0,18.2,0,18.2v-0.5c0-0.1,0-0.1,0.1-0.1 c0.2,0,1,0.1,2.1,0.1c1.9,0,2.5-0.1,2.7-0.1c0.1,0,0.1,0,0.1,0.1v0.5c0,0.1,0,0.2-0.1,0.2H4.4c-0.5,0-0.6,0.2-0.5,0.6 c0.1,0.3,2.3,4.2,2.8,5.3c0.7-1.1,3.2-4.8,3.3-5.1c0.1-0.3,0.2-0.7-0.6-0.7H8.9c-0.1,0-0.1-0.1-0.1-0.2v-0.4c0-0.1,0-0.1,0.1-0.1 c0.2,0,0.9,0.1,2.1,0.1c1.1,0,1.5-0.1,1.6-0.1c0.1,0,0.1,0,0.1,0.1v0.4c0,0.1,0,0.2-0.1,0.2h-0.5c-0.3,0-0.6,0.1-0.9,0.4 c-0.4,0.3-3.6,5-4.3,6V27.1z"></path><path class="st0" d="M11.6,29.4c-0.8-1-1-1.7-1-3c0-0.9,0.5-2.1,1.6-2.9c0.9-0.7,1.8-0.9,2.4-0.9c1,0,2,0.5,2.5,1.1 c0.8,0.8,1.2,1.8,1.2,3c0,2-1.8,4-4,4C13.5,30.7,12.4,30.3,11.6,29.4z M16.9,26.5c0-2-1.5-3.3-2.4-3.3c-0.5,0-1,0.1-1.4,0.6 c-0.7,0.7-1,1.5-1,2.8c0,1,0.1,1.7,0.7,2.5c0.4,0.6,0.9,0.9,1.8,0.9C16,30.1,16.9,28.5,16.9,26.5z"></path><path class="st0" d="M25.8,26.8c0,0.9,0,1.8,0,2.1c0.1,0.6,0.3,0.6,0.5,0.6c0.1,0,0.4,0,0.6-0.1c0.1,0,0.2,0,0.2,0.1l0.1,0.2 c0,0.1,0,0.1-0.1,0.2l-1.9,0.6c-0.1,0-0.2,0.1-0.4,0.1c-0.1,0-0.1,0-0.2-0.2l-0.1-1.1h0c-0.5,0.7-1.6,1.3-2.5,1.3 c-0.5,0-1.1-0.1-1.7-0.8c-0.7-1-0.7-1.6-0.7-3.5v-2.1c0-0.5-0.3-0.6-0.7-0.7c-0.3,0-0.4,0-0.4-0.1v-0.3c0-0.1,0-0.1,0.2-0.1h1.6 c0.1,0,0.2,0,0.3,0c0.1,0,0.1,0,0.2,0c0.1,0,0.2,0.1,0.2,0.2c0,0.2-0.1,1-0.1,2.1v1.3c0,0.7-0.2,1.9,0.4,2.7c0.5,0.7,1,0.7,1.5,0.7 c0.5,0,1.2-0.5,1.6-0.9c0.1-0.1,0.2-0.3,0.2-0.5v-4.3c0-0.5-0.3-0.6-0.8-0.6c-0.3,0-0.4,0-0.4-0.1v-0.3c0-0.1,0-0.2,0.2-0.2h1.7 c0.1,0,0.2,0,0.3,0c0.1,0,0.2,0,0.2,0c0.1,0,0.2,0.1,0.2,0.2c0,0.2-0.1,0.6-0.1,2.4L25.8,26.8L25.8,26.8z"></path><path class="st0" d="M35.1,29.5c0,0.3,0.2,0.4,0.4,0.4h0.6c0.2,0,0.2,0.1,0.2,0.2v0.3c0,0.1,0,0.2-0.1,0.2c-0.1,0-0.7-0.1-1.7-0.1 c-0.9,0-1.5,0.1-1.6,0.1c-0.1,0-0.1-0.1-0.1-0.2V30c0-0.1,0.1-0.2,0.2-0.2h0.5c0.2,0,0.3-0.1,0.4-0.4c0-0.5,0-1.1,0-1.5v-2.4 c0-0.7,0-1.3-0.5-1.6c-0.4-0.3-0.9-0.3-1.3-0.3c-0.3,0-0.9,0.1-1.5,0.7c-0.4,0.4-0.4,0.9-0.4,1.2v3.8c0,0.5,0.1,0.6,0.4,0.6H31 c0.1,0,0.2,0.1,0.2,0.2v0.3c0,0.1,0,0.2-0.1,0.2c-0.1,0-0.6-0.1-1.6-0.1c-0.9,0-1.5,0.1-1.6,0.1c-0.1,0-0.1-0.1-0.1-0.2V30 c0-0.1,0-0.2,0.2-0.2h0.5c0.2,0,0.4-0.1,0.4-0.4v-4.2c0-0.5-0.3-0.8-0.7-1.1l-0.1-0.1c-0.1-0.1-0.1-0.1-0.1-0.2v-0.1 c0-0.1,0.1-0.1,0.2-0.2l1.6-0.9c0.1-0.1,0.3-0.1,0.3-0.1c0.1,0,0.1,0.1,0.1,0.2l0.1,1.1h0c0.5-0.7,1.6-1.3,2.5-1.3 c0.5,0,1.1,0.1,1.5,0.4c0.5,0.4,1,1.3,1,1.7L35.1,29.5L35.1,29.5z"></path><path class="st0" d="M37.2,34.8c-0.7-0.4-0.9-0.9-0.9-1.5c0-1,1-1.8,1.9-2.2v-0.1c-0.8-0.2-1.2-0.7-1.2-1.3c0-0.9,1-1.5,1.6-1.7v0 c-0.7-0.3-1.7-1.1-1.7-2.8c0-1.2,1.1-2.6,3.1-2.6c1.4,0,2.1,0.8,2.3,1.1c0.5-0.3,1.1-0.7,1.7-0.7c0.6,0,0.9,0.4,0.9,0.8 c0,0.3-0.3,0.7-0.7,0.7c-0.3,0-0.5-0.1-0.6-0.3c-0.1-0.1-0.2-0.2-0.4-0.2c-0.1,0-0.3,0-0.6,0.1c0.1,0.4,0.3,0.8,0.3,1.4 c0,0.7-0.2,1.4-0.7,2c-0.5,0.5-1.5,0.9-2.1,0.9c-0.4,0-0.7,0-0.9-0.1c-0.4,0.1-1,0.5-1,1c0,0.7,0.9,0.7,2.1,0.6 c1.5-0.1,2.4,0.1,3.1,0.7c0.8,0.6,0.9,1.3,0.9,1.7c0,0.8-0.3,1.6-1.2,2.2c-0.5,0.3-1.6,0.8-3.1,0.8C39.1,35.4,38.1,35.3,37.2,34.8z  M43.2,32.9c0-1.1-0.8-1.9-2.6-1.8l-1.7,0.1c-0.6,0.1-1.5,0.8-1.5,1.7c0,0.5,0.3,1,0.7,1.3c0.6,0.4,1.3,0.5,2.5,0.5 C41.3,34.8,43.3,34.3,43.2,32.9z M41.5,25.2c0-0.8-0.2-1.3-0.5-1.6c-0.2-0.2-0.6-0.4-0.9-0.4c-0.4,0-0.9,0.1-1.3,0.5 c-0.6,0.6-0.7,1.4-0.7,2.1c0,0.6,0.2,1.2,0.6,1.6c0.3,0.3,0.7,0.5,1.1,0.5C41.1,27.9,41.5,26.4,41.5,25.2z"></path><path class="st0" d="M52.3,25.4c-0.2,0.5-1.2,3.2-1.3,3.6c0,0.1-0.1,0.3-0.1,0.4c0,0.3,0.2,0.4,0.6,0.4h0.9c0.1,0,0.2,0,0.2,0.1v0.4 c0,0.1-0.1,0.2-0.1,0.2c-0.3,0-1-0.1-2.1-0.1c-1.3,0-1.7,0.1-2,0.1c-0.1,0-0.1,0-0.1-0.1v-0.4c0-0.1,0.1-0.1,0.1-0.1h0.6 c0.5,0,0.8-0.3,1.1-0.8c0.1-0.3,1.5-3.6,2-5.1c0.1-0.4,1.6-4.3,1.8-4.7c0.1-0.2,0.1-0.4,0-0.6c-0.1-0.1-0.1-0.2-0.1-0.2 c0-0.1,0-0.1,0.2-0.2c0.5-0.1,1.3-0.7,1.5-0.9c0.1-0.1,0.1-0.2,0.2-0.2c0.1,0,0.1,0.1,0.2,0.3c0.3,1.1,1.8,5.2,2.1,6.4 c0.4,1.4,1.6,4.8,1.9,5.3c0.3,0.6,0.8,0.8,1.2,0.8h0.6c0.1,0,0.1,0.1,0.1,0.1v0.5c0,0.1-0.1,0.1-0.2,0.1c-0.3,0-0.7-0.1-2.2-0.1 c-1.5,0-2.1,0.1-2.6,0.1c-0.1,0-0.1-0.1-0.1-0.2v-0.4c0-0.1,0.1-0.1,0.2-0.1h0.5c0.5,0,0.7-0.2,0.5-0.7c-0.1-0.7-0.9-3-1.1-3.7 L52.3,25.4L52.3,25.4z M56.6,24.8c-0.2-0.5-1.6-5.1-1.7-5.3c-0.1-0.1-0.1-0.3-0.1-0.3c-0.1,0-0.1,0.1-0.2,0.3 c-0.1,0.2-1.8,4.9-1.9,5.3H56.6z"></path><path class="st0" d="M63.2,26.1c0,1,0.4,2.1,0.9,2.8c0.6,0.8,1.4,0.9,2,0.9c0.9,0,1.4-0.2,2-0.8c0,0,0.1-0.1,0.1,0l0.2,0.2 c0.1,0.1,0.1,0.1,0,0.2c-0.5,0.6-1.7,1.3-2.9,1.3c-1,0-2-0.2-2.8-1.3c-0.7-0.9-0.8-1.6-0.8-2.5c0-2.1,1.5-4.3,3.9-4.3 c1.9,0,2.5,1.1,2.5,1.5c0,0.4-0.3,0.6-0.7,0.6c-0.4,0-0.7-0.2-1-0.7c-0.4-0.7-0.8-0.8-1.2-0.8C64.3,23.3,63.2,24.2,63.2,26.1z"></path><path class="st0" d="M74.2,28.3c0,1,0.2,1.4,0.5,1.4c0.3,0,0.5-0.1,0.6-0.3c0.1-0.1,0.1-0.1,0.2-0.1l0.2,0.1c0.1,0.1,0.1,0.1,0,0.3 c-0.1,0.3-0.5,0.9-1.4,0.9c-0.7,0-1.1-0.5-1.3-1.2h0c-0.4,0.5-1,0.8-1.8,1.1c-0.3,0.1-0.7,0.1-1.1,0.1c-0.4,0-1.1-0.4-1.1-1.5 c0-0.8,0.4-1.6,1.8-2.2c0.8-0.4,1.8-0.8,2.1-1.1v-1.2c0-0.3-0.1-0.8-0.3-1c-0.2-0.2-0.6-0.4-1.1-0.4c-0.4,0-0.9,0.1-1.2,0.4 c-0.3,0.2-0.1,0.5-0.1,0.8c0,0.6-0.2,1-1,1c-0.3,0-0.4-0.2-0.4-0.6c0-0.6,0.5-1.3,1.3-1.7c0.8-0.5,1.4-0.6,2.2-0.6 c0.9,0,1.2,0.3,1.5,0.5c0.4,0.4,0.4,0.8,0.4,1.3v2.8V28.3z M72.9,26.5c-0.7,0.5-2.4,0.8-2.4,2.4c0,0.7,0.4,1,0.9,1 c0.5,0,1.5-0.6,1.5-1.1L72.9,26.5L72.9,26.5z"></path><path class="st0" d="M81.8,19.4c0-0.7-0.1-0.9-1.1-1.1c-0.1,0-0.1-0.1-0.1-0.1v-0.3c0-0.1,0-0.1,0.1-0.1c0.7-0.1,1.7-0.3,2-0.4 c0.2,0,0.3-0.1,0.4-0.1c0.1,0,0.1,0.1,0.1,0.3c-0.1,0.9-0.1,3.5-0.1,5.8v4c0,0.7,0,1.5,0.2,1.6c0.2,0.2,0.5,0.3,0.8,0.3 c0.3,0,0.3,0,0.4,0.1l0,0.1c0,0.1,0,0.2-0.1,0.2l-2.1,0.7c-0.1,0-0.2,0-0.2-0.1l-0.2-0.8c-0.6,0.6-1.7,1-2.7,1c-0.6,0-1.3,0-2.1-0.8 c-0.9-0.9-1.1-1.7-1.1-2.9c0-1.1,0.4-2.2,1.3-3.1c0.7-0.8,1.7-1.1,2.7-1.1c0.7,0,1.4,0.1,1.9,0.3L81.8,19.4L81.8,19.4z M81.8,25.2 c0-0.3,0-0.6-0.2-0.9c-0.3-0.5-0.8-1-1.9-1c-0.6,0-1.2,0.2-1.7,0.7c-0.7,0.8-0.8,1.7-0.8,2.4c0,2,1.4,3.5,2.5,3.5c1,0,1.8-0.5,2-1 c0.1-0.3,0.1-0.4,0.1-0.6V25.2z"></path><path class="st0" d="M86,25.6c0,0.2-0.1,0.5-0.1,0.9c0,1.8,1.1,3.1,2.6,3.1c1.1,0,1.9-0.6,2.2-1.2c0-0.1,0.1-0.1,0.2-0.1l0.2,0.1 c0.1,0,0.1,0.1,0,0.3c-0.3,0.7-1.3,2-2.9,2c-1,0-2.2-0.3-2.9-1.3c-0.6-0.9-0.8-1.6-0.8-2.9c0-0.7,0.2-1.9,1.1-2.9 c0.8-0.8,1.7-1,2.6-1c2.1,0,2.7,2,2.7,2.7c0,0.3-0.2,0.3-0.5,0.3H86z M88.9,25.1c0.3,0,0.5-0.1,0.5-0.3c0-0.4-0.2-1.6-1.4-1.6 c-0.8,0-1.6,0.5-1.9,1.9L88.9,25.1L88.9,25.1z"></path><path class="st0" d="M97.7,25.8c0-1.3-0.3-1.7-0.5-2c-0.2-0.2-0.8-0.3-1.2-0.3c-0.5,0-1.2,0.2-1.7,1.1C94,25,94,25.3,94,25.8v3.6 c0,0.3,0.1,0.5,0.4,0.5H95c0.2,0,0.2,0,0.2,0.2v0.3c0,0.1,0,0.2-0.1,0.2c-0.2,0-0.7-0.1-1.7-0.1c-1,0-1.5,0.1-1.7,0.1 c-0.1,0-0.1,0-0.1-0.2V30c0-0.1,0-0.2,0.2-0.2h0.6c0.2,0,0.3-0.1,0.3-0.5c0-0.3,0-0.6,0-0.9v-3.2c0-0.4-0.1-0.7-0.5-0.9l-0.4-0.2 c-0.1-0.1-0.1-0.1-0.1-0.1v-0.1c0-0.1,0.1-0.1,0.1-0.1l1.6-0.8c0.1-0.1,0.3-0.1,0.3-0.1c0.1,0,0.2,0.1,0.2,0.3l0.1,1.1H94 c0.5-0.7,1.6-1.4,2.7-1.4c0.9,0,1.7,0.5,2.1,1.4h0.1c0.5-0.7,1.6-1.4,2.7-1.4c0.6,0,1.2,0.1,1.6,0.5c0.4,0.4,0.9,0.8,0.9,2.2v4 c0,0.3,0.2,0.4,0.4,0.4h0.5c0.2,0,0.2,0,0.2,0.2v0.3c0,0.1,0,0.2-0.1,0.2c-0.1,0-0.6-0.1-1.5-0.1c-0.9,0-1.6,0.1-1.7,0.1 c-0.1,0-0.1-0.1-0.1-0.2V30c0-0.1,0-0.2,0.2-0.2h0.5c0.2,0,0.3-0.1,0.4-0.3c0-0.4,0-1.1,0-1.5v-2.7c0-0.6-0.1-1.1-0.5-1.4 c-0.3-0.3-0.8-0.4-1.3-0.4c-0.5,0-1.3,0.4-1.6,0.9c-0.3,0.5-0.3,1-0.3,1.8v3.1c0,0.2,0.1,0.4,0.4,0.4h0.6c0.2,0,0.2,0,0.2,0.2v0.3 c0,0.1,0,0.2-0.1,0.2c-0.1,0-0.6-0.1-1.6-0.1c-1,0-1.6,0.1-1.7,0.1c-0.1,0-0.1-0.1-0.1-0.2V30c0-0.1,0-0.2,0.2-0.2h0.5 c0.3,0,0.4-0.1,0.4-0.3L97.7,25.8L97.7,25.8z"></path><path class="st0" d="M104.6,34.5c0-0.4,0.4-0.7,0.8-0.7c0.3,0,0.7,0.2,0.8,0.2c0.1,0,0.3,0,0.4-0.1c0.3-0.3,1.2-2.4,1.5-3.1 c-0.1-0.5-2-6.1-2.2-6.5c-0.2-0.5-0.4-0.8-0.9-0.8h-0.5c-0.1,0-0.1-0.1-0.1-0.2V23c0-0.1,0-0.1,0.1-0.1c0.2,0,0.6,0.1,1.7,0.1 c0.9,0,1.5-0.1,1.7-0.1c0.1,0,0.2,0.1,0.2,0.1v0.4c0,0.1,0,0.1-0.1,0.1h-0.3c-0.2,0-0.3,0.1-0.2,0.4c0.1,0.4,1.3,4.4,1.5,4.8h0.1 c0.2-0.3,1.8-4,1.9-4.5c0.1-0.5,0-0.7-0.3-0.7h-0.3c-0.1,0-0.1-0.1-0.1-0.1V23c0-0.1,0-0.1,0.1-0.1c0.2,0,0.6,0.1,1.5,0.1 c0.5,0,0.9-0.1,1.1-0.1c0.1,0,0.1,0.1,0.1,0.1v0.3c0,0.1,0,0.2-0.1,0.2h-0.3c-0.2,0-0.5,0.1-0.6,0.3c-0.4,0.5-1.6,3.2-2.9,6.1 c-0.9,2-1.6,3.7-1.9,4.3c-0.3,0.5-0.6,1.2-1.5,1.2C105,35.4,104.6,35,104.6,34.5z"></path><path class="st0" d="M1.6,1.8c0-0.6-0.1-0.9-0.6-0.9H0.1C0,0.9,0,0.9,0,0.8V0.4c0-0.1,0-0.1,0.2-0.1c0.2,0,1,0.1,2.8,0.1 c1.5,0,2.4-0.1,2.6-0.1c0.1,0,0.1,0,0.1,0.1v0.4c0,0.1,0,0.1-0.1,0.1H4.8c-0.5,0-0.9,0.3-0.9,0.7c0,0.2-0.1,1.3-0.1,2.3v2.2 c0,0.9,0,2.2,0.1,2.7c0.1,0.8,0.2,1.7,0.6,2.2C5.2,12,6.1,12.3,7,12.3c0.8,0,1.8-0.3,2.4-0.9c0.7-0.7,1-1.7,1-3V5.2 c0-1.4-0.1-3-0.2-3.4c-0.1-0.5-0.3-0.8-0.7-0.8H8.9c-0.1,0-0.1-0.1-0.1-0.1V0.4c0-0.1,0-0.1,0.1-0.1c0.2,0,1,0.1,2.2,0.1 c1.1,0,1.7-0.1,1.8-0.1c0.2,0,0.2,0.1,0.2,0.1v0.4c0,0.1,0,0.2-0.1,0.2h-0.6c-0.6,0-0.7,0.5-0.8,0.7c0,0.2,0,2.7,0,3 c0,0.2,0,3.4-0.1,4.1c-0.1,1.5-0.5,2.6-1.5,3.4c-0.8,0.7-1.9,1.1-3.3,1.1c-0.9,0-1.9-0.1-2.6-0.4c-1-0.4-1.8-1.3-2.1-2.4 c-0.2-0.8-0.3-2-0.3-4.3L1.6,1.8L1.6,1.8z"></path><path class="st0" d="M13.6,9c0.1,0,0.1,0,0.1,0.1c0,0.6,0.2,1.3,0.7,2c0.5,0.9,1.5,1.3,2.4,1.3c1,0,2.3-0.6,2.3-2.1 c0-1.7-0.8-2.2-2.7-2.9c-0.6-0.2-1.8-0.7-2.6-1.5c-0.6-0.6-0.9-1.5-0.9-2.6c0-1,0.4-1.8,1.3-2.5C14.9,0.2,15.7,0,16.7,0 c1.2,0,1.9,0.3,2.3,0.4c0.2,0.1,0.3,0,0.4-0.1l0.2-0.2C19.7,0.1,19.7,0,19.9,0C20,0,20,0.1,20,0.3c0,0.3,0.3,2.8,0.3,3 c0,0.1,0,0.1-0.1,0.1l-0.3,0.1c-0.1,0-0.1,0-0.2-0.1c-0.2-0.5-0.5-1.2-1.1-1.9c-0.5-0.5-1-0.8-1.9-0.8c-1.4,0-2,1.1-2,1.8 c0,0.6,0.1,1.1,0.5,1.6c0.5,0.5,1.5,0.9,2.2,1.1c1,0.3,1.9,0.7,2.6,1.4c0.6,0.6,0.9,1.4,0.9,2.6c0,2.2-1.4,4-3.8,4 c-1.5,0-2.3-0.3-3.1-0.9c-0.2-0.1-0.3-0.2-0.4-0.2c-0.1,0-0.2,0.1-0.3,0.3c-0.1,0.2-0.2,0.2-0.3,0.2c-0.1,0-0.2-0.1-0.2-0.3 c0-0.2,0.3-3.1,0.3-3.3c0-0.1,0-0.1,0.1-0.1L13.6,9z"></path><path class="st0" d="M33.2,10c0.1,0.1,0.1,0.1,0,0.2c-1.1,1.5-2.8,3-5.4,3c-2.3,0-3.6-0.7-4.7-1.7c-1.3-1.2-1.9-3.3-1.9-4.8 c0-1.8,0.6-3.4,1.8-4.8c1-1,2.5-1.9,4.7-1.9c1.7,0,3,0.5,3.6,0.9c0.3,0.1,0.3,0.1,0.4,0l0.1-0.5c0-0.1,0.1-0.1,0.3-0.1 c0.2,0,0.2,0,0.2,0.3c0,0.3,0.4,3.2,0.4,3.7c0,0.1,0,0.2-0.1,0.2l-0.3,0.1c-0.1,0-0.1,0-0.2-0.2c-0.2-0.6-0.6-1.5-1.4-2.3 c-0.8-0.8-1.7-1.3-3.1-1.3c-2.9,0-4.1,2.6-4.1,5.2c0,1.1,0.3,3.2,1.7,4.7c1.2,1.3,2.2,1.4,3.1,1.4c2,0,3.6-1,4.3-2.1 c0.1-0.1,0.2-0.2,0.2-0.1L33.2,10z"></path></svg>
